# AST/ASF file generated using VICON BodyLanguage
# -----------------------------------------------
:version 1.10
:name VICON
:units
  mass 1.0
  length 0.45
  angle deg
:documentation
   .ast/.asf automatically generated from VICON data using
   VICON BodyBuilder and BodyLanguage model FoxedUp or BRILLIANT.MOD
:root
   order TX TY TZ RX RY RZ
   axis XYZ
   position 0 0 0  
   orientation 0 0 0 
:bonedata
  begin
     id 1 
     name lhipjoint
     direction 0.567725 -0.736092 0.368589 
     length 2.42353 
     axis 0 0 0  XYZ
  end
  begin
     id 2 
     name lfemur
     direction 0.34202 -0.939693 0  
     length 7.24894  
     axis 0 0 20  XYZ
    dof rx ry rz
    limits (-160.0 20.0)
           (-70.0 70.0)
           (-60.0 70.0)
  end
  begin
     id 3 
     name ltibia
     direction 0.34202 -0.939693 0   
     length 7.6997   
     axis 0 0 20   XYZ
    dof rx
    limits (-10.0 170.0)
  end
  begin
     id 4 
     name lfoot
     direction 0.100767 -0.276854 0.955614   
     length 2.37556   
     axis -90 7.62852e-016 20   XYZ
    dof rx rz
    limits (-45.0 90.0)
           (-70.0 20.0)
  end
  begin
     id 5 
     name ltoes
     direction 1.53592e-011 -4.21894e-011 1   
     length 1.18363   
     axis -90 7.62852e-016 20   XYZ
    dof rx
    limits (-90.0 20.0)
  end
  begin
     id 6 
     name rhipjoint
     direction -0.556459 -0.742938 0.372017   
     length 2.4012  
     axis 0 0 0  XYZ 
  end
  begin
     id 7 
     name rfemur
     direction -0.34202 -0.939693 0   
     length 7.5119   
     axis 0 0 -20   XYZ
    dof rx ry rz
    limits (-160.0 20.0)
           (-70.0 70.0)
           (-70.0 60.0)
  end
  begin
     id 8 
     name rtibia
     direction -0.34202 -0.939693 0   
     length 7.50155   
     axis 0 0 -20   XYZ
    dof rx
    limits (-10.0 170.0)
 end
 begin
     id 9 
     name rfoot
     direction -0.118427 -0.325376 0.938139   
     length 2.32487  
     axis -90 -7.62852e-016 -20   XYZ
    dof rx rz
    limits (-45.0 90.0)
           (-20.0 70.0)
  end
  begin
     id 10 
     name rtoes
     direction -1.53525e-011 -4.21868e-011 1   
     length 1.15233   
     axis -90 -7.62852e-016 -20   XYZ
    dof rx
    limits (-90.0 20.0)
  end
  begin
     id 11 
     name lowerback
     direction 0.0287568 0.999577 -0.00434502   
     length 2.15243   
     axis 0 0 0   XYZ
    dof rx ry rz
    limits (-20.0 45.0)
           (-30.0 30.0)
           (-30.0 30.0)
  end
  begin
     id 12 
     name upperback
     direction 0.0294009 0.99956 0.00404628   
     length 2.15427   
     axis 0 0 0   XYZ
    dof rx ry rz
    limits (-20.0 45.0)
           (-30.0 30.0)
           (-30.0 30.0)
  end
  begin
     id 13 
     name thorax
     direction 0.0151014 0.999868 0.0059419   
     length 2.14898   
     axis 0 0 0   XYZ
    dof rx ry rz
    limits (-20.0 45.0)
           (-30.0 30.0)
           (-30.0 30.0)
  end
  begin
     id 14 
     name lowerneck
     direction -0.0249197 0.989906 0.139515   
     length 1.6861   
     axis 0 0 0   XYZ
    dof rx ry rz
    limits (-20.0 45.0)
           (-30.0 30.0)
           (-30.0 30.0)
  end
  begin
     id 15 
     name upperneck
     direction 0.0438463 0.988795 -0.142693   
     length 1.71276   
     axis 0 0 0   XYZ
    dof rx ry rz
    limits (-20.0 45.0)
           (-30.0 30.0)
           (-30.0 30.0)
  end
  begin
     id 16
     name head
     direction 0.0148499 0.997845 -0.0639186  
     length 1.7209  
     axis 0 0 0   XYZ
    dof rx ry rz
    limits (-20.0 45.0)
           (-30.0 30.0)
           (-30.0 30.0)
  end
  begin
     id 17 
     name lclavicle
     direction 0.940298 0.323464 -0.105876  
     length 3.9048  
     axis 0 0 0   XYZ
    dof ry rz
    limits (-20.0 10.0)
           (0.0 20.0)
  end
  begin
     id 18 
     name lhumerus
     direction 1 -4.48954e-011 -4.9675e-028   
     length 4.6851   
     axis 180 -30 -90   XYZ
    dof rx ry rz
    limits (-60.0 90.0)
           (-90.0 90.0)
           (-90.0 90.0)
  end
  begin
     id 19
     name lradius
     direction 1 -4.48992e-011 -1.03359e-026   
     length 3.39626   
     axis 180 -30 -90   XYZ
    dof rx
    limits (-10.0 170.0)
  end
  begin
     id 20
     name lwrist
     direction 1 -4.48906e-011 -1.67336e-026   
     length 1.69813   
     axis 9.90442e-015 90 90   XYZ
    dof ry
    limits (-180.0 0.0)
 end
  begin
     id 21 
     name lhand
     direction 1 -4.49006e-011 -3.34673e-026   
     length 0.486078   
     axis 2.1355e-014 90 90   XYZ
    dof rx rz
    limits (-90.0 90.0)
           (-45.0 45.0)
  end
  begin
     id 22 
     name lfingers
     direction 1 -4.48992e-011 -6.69345e-026   
     length 0.391889   
     axis 4.27099e-014 90 90   XYZ
    dof rx
    limits (0.0 90.0)
  end
  begin
     id 23
     name lthumb
     direction 0.707107 -6.34926e-011 0.707107   
     length 0.562676   
     axis -90 45 2.85299e-015   XYZ
    dof rx rz
    limits (-45.0 45.0)
           (-45.0 45.0)
  end
  begin
     id 24 
     name rclavicle
     direction -0.882459 0.414895 -0.221648   
     length 3.44646  
     axis 0 0 0   XYZ 
    dof ry rz
    limits (-10.0 20.0)
           (-20.0 0.0)
  end
  begin
     id 25 
     name rhumerus
     direction -1 -4.48962e-011 -2.37984e-027  
     length 5.55576   
     axis 180 30 90   XYZ
    dof rx ry rz
    limits (-90.0 60.0)
           (-90.0 90.0)
           (-90.0 90.0)
  end
  begin
     id 26 
     name rradius
     direction -1 -4.48982e-011 -6.86791e-027   
     length 3.32774   
     axis 180 30 90   XYZ
    dof rx
    limits (-10.0 170.0)
  end
  begin
     id 27 
     name rwrist
     direction -1 -4.48961e-011 -1.67336e-026   
     length 1.66387   
     axis 9.90442e-015 -90 -90   XYZ
    dof ry
    limits (-180.0 0.0)
  end
  begin
     id 28
     name rhand
     direction -1 -4.4897e-011 -3.34673e-026   
     length 0.507628   
     axis 2.1355e-014 -90 -90   XYZ
    dof rx rz
    limits (-90.0 90.0)
           (-45.0 45.0)
  end
  begin
     id 29
     name rfingers
     direction -1 -4.48854e-011 -6.69345e-026   
     length 0.409263   
     axis 4.27099e-014 -90 -90   XYZ
    dof rx
    limits (0.0 90.0)
  end
  begin
     id 30
     name rthumb
     direction -0.707107 -6.34913e-011 0.707107   
     length 0.587622   
     axis -90 -45 -2.85299e-015   XYZ
    dof rx rz
    limits (-45.0 45.0)
           (-45.0 45.0)
  end
:hierarchy
  begin
    root lhipjoint rhipjoint lowerback
    lhipjoint lfemur
    lfemur ltibia
    ltibia lfoot
    lfoot ltoes
    rhipjoint rfemur
    rfemur rtibia
    rtibia rfoot
    rfoot rtoes
    lowerback upperback
    upperback thorax
    thorax lowerneck lclavicle rclavicle
    lowerneck upperneck
    upperneck head
    lclavicle lhumerus
    lhumerus lradius
    lradius lwrist
    lwrist lhand lthumb
    lhand lfingers
    rclavicle rhumerus
    rhumerus rradius
    rradius rwrist
    rwrist rhand rthumb
    rhand rfingers
  end

#!OML:ASF E:\motion texture\Top Level 1\Subject 1\Session 1\male.ASF
:FULLY-SPECIFIED
:DEGREES
144
root 31.9053 17.5767 5.59402 172.242 -85.1859 -164.738
lowerback -0.443594 -2.49756 -0.934747
upperback -2.26311 -3.34405 1.34879
thorax -1.93809 -1.65336 1.94465
lowerneck -17.9311 -7.43979 -10.3603
upperneck 11.4121 -8.95378 9.07265
head 7.31501 -3.99271 3.5722
rclavicle 7.54605e-015 9.93923e-016
rhumerus -22.8733 16.774 -87.5285
rradius 73.3481
rwrist 17.623
rhand -20.01 -21.9544
rfingers 7.12502
rthumb 6.33013 -51.8398
lclavicle 7.54605e-015 9.93923e-016
lhumerus -16.9783 -19.1325 96.6898
lradius 56.616
lwrist -7.44747
lhand -15.9957 27.5051
lfingers 7.12502
lthumb 10.2043 57.2376
rfemur -35.2319 -5.74771 17.8039
rtibia 41.948
rfoot -4.55618 -18.6592
rtoes 7.30998
lfemur -6.10065 -2.95492 -20.2937
ltibia 14.3581
lfoot -13.5341 7.90487
ltoes 0.0726367
145
root 31.7787 17.5645 5.5908 172.848 -85.2679 -165.325
lowerback -0.432857 -2.56307 -0.979249
upperback -2.27632 -3.43144 1.40803
thorax -1.94816 -1.6958 2.03181
lowerneck -17.9652 -7.39684 -10.296
upperneck 11.3668 -8.8961 9.02419
head 7.29458 -3.96571 3.55319
rclavicle 3.507e-014 -9.54166e-015
rhumerus -22.4989 17.0491 -87.355
rradius 74.4039
rwrist 17.7294
rhand -20.2224 -21.9216
rfingers 7.12502
rthumb 6.12514 -51.8131
lclavicle 3.507e-014 -9.54166e-015
lhumerus -16.5778 -19.9406 96.8908
lradius 57.349
lwrist -7.20546
lhand -15.9717 27.3903
lfingers 7.12502
lthumb 10.2275 57.1216
rfemur -35.527 -5.71267 17.6285
rtibia 40.2753
rfoot -4.5084 -18.444
rtoes 7.18141
lfemur -5.57347 -2.95831 -20.4277
ltibia 14.2254
lfoot -13.866 7.87441
ltoes -0.202921
146
root 31.6515 17.5514 5.58674 173.444 -85.3524 -165.899
lowerback -0.420693 -2.6275 -1.01968
upperback -2.28682 -3.51735 1.46608
thorax -1.9563 -1.73759 2.11548
lowerneck -18.0014 -7.35528 -10.2304
upperneck 11.3195 -8.84048 8.97607
head 7.27412 -3.93958 3.53375
rclavicle 2.18166e-014 -2.48481e-015
rhumerus -22.1099 17.3191 -87.1762
rradius 75.4232
rwrist 17.8303
rhand -20.4371 -21.8948
rfingers 7.12502
rthumb 5.91782 -51.7922
lclavicle 2.18166e-014 -2.48481e-015
lhumerus -16.1633 -20.7271 97.0716
lradius 58.0614
lwrist -6.96887
lhand -15.9484 27.2825
lfingers 7.12502
lthumb 10.25 57.0128
rfemur -35.7974 -5.65934 17.4499
rtibia 38.6302
rfoot -4.43309 -18.2285
rtoes 7.04258
lfemur -5.06027 -2.95846 -20.5539
ltibia 14.1176
lfoot -14.199 7.83886
ltoes -0.498016
147
root 31.5235 17.5375 5.58186 174.042 -85.4399 -166.474
lowerback -0.406679 -2.6913 -1.05709
upperback -2.29546 -3.60241 1.52331
thorax -1.96354 -1.77903 2.19668
lowerneck -18.0367 -7.3147 -10.1649
upperneck 11.2705 -8.78613 8.92737
head 7.2531 -3.91417 3.51398
rclavicle -3.44767e-015 5.46658e-015
rhumerus -21.7081 17.5854 -86.992
rradius 76.4049
rwrist 17.9257
rhand -20.6548 -21.8704
rfingers 7.12502
rthumb 5.70764 -51.7735
lclavicle -3.44767e-015 5.46658e-015
lhumerus -15.737 -21.49 97.234
lradius 58.7529
lwrist -6.7326
lhand -15.9231 27.1754
lfingers 7.12502
lthumb 10.2744 56.9045
rfemur -36.0448 -5.58642 17.2655
rtibia 37.0264
rfoot -4.33099 -18.0166
rtoes 6.89216
lfemur -4.5621 -2.95861 -20.6742
ltibia 14.0374
lfoot -14.5354 7.79995
ltoes -0.803707
148
root 31.3948 17.523 5.57618 174.632 -85.5311 -167.037
lowerback -0.384048 -2.752 -1.0882
upperback -2.29974 -3.68328 1.57755
thorax -1.97164 -1.81847 2.2716
lowerneck -18.0966 -7.27952 -10.0935
upperneck 11.2298 -8.73834 8.87532
head 7.23915 -3.8912 3.49069
rclavicle -5.00689e-015 -1.2921e-014
rhumerus -21.2859 17.8393 -86.8002
rradius 77.3467
rwrist 18.0176
rhand -20.8762 -21.8534
rfingers 7.12502
rthumb 5.49392 -51.7621
lclavicle -5.00689e-015 -1.2921e-014
lhumerus -15.2895 -22.2382 97.375
lradius 59.4212
lwrist -6.49542
lhand -15.8975 27.0698
lfingers 7.12502
lthumb 10.2991 56.7976
rfemur -36.2727 -5.49321 17.075
rtibia 35.4764
rfoot -4.20073 -17.8148
rtoes 6.73131
lfemur -4.08083 -2.95964 -20.7877
ltibia 13.9874
lfoot -14.8701 7.75847
ltoes -1.14517
149
root 31.2655 17.5078 5.56962 175.211 -85.6249 -167.59
lowerback -0.364153 -2.81534 -1.11622
upperback -2.30449 -3.76767 1.63278
thorax -1.9784 -1.85974 2.34576
lowerneck -18.1249 -7.23906 -10.0295
upperneck 11.174 -8.68434 8.82728
head 7.21501 -3.86622 3.47148
rclavicle -2.96624e-014 9.34288e-015
rhumerus -20.8603 18.1011 -86.6086
rradius 78.2494
rwrist 18.1045
rhand -21.0994 -21.8385
rfingers 7.12502
rthumb 5.27837 -51.7527
lclavicle -2.96624e-014 9.34288e-015
lhumerus -14.8397 -22.9467 97.4998
lradius 60.0679
lwrist -6.25931
lhand -15.8889 26.956
lfingers 7.12502
lthumb 10.3074 56.6834
rfemur -36.4817 -5.3789 16.8788
rtibia 33.9906
rfoot -4.04392 -17.629
rtoes 6.57539
lfemur -3.61526 -2.96151 -20.8935
ltibia 13.9695
lfoot -15.203 7.71297
ltoes -1.51478
150
root 31.1354 17.4923 5.56221 175.768 -85.7214 -168.121
lowerback -0.338807 -2.87748 -1.13723
upperback -2.30584 -3.85041 1.68586
thorax -1.98515 -1.90033 2.41401
lowerneck -18.1571 -7.19986 -9.96441
upperneck 11.1177 -8.63203 8.77925
head 7.19156 -3.84192 3.4518
rclavicle -3.84648e-014 1.49089e-014
rhumerus -20.4208 18.3574 -86.4141
rradius 79.1116
rwrist 18.1897
rhand -21.3231 -21.8285
rfingers 7.12502
rthumb 5.0624 -51.748
lclavicle -3.84648e-014 1.49089e-014
lhumerus -14.3775 -23.6296 97.6044
lradius 60.6929
lwrist -6.02013
lhand -15.8722 26.8528
lfingers 7.12502
lthumb 10.3234 56.5794
rfemur -36.6738 -5.24406 16.678
rtibia 32.5788
rfoot -3.86674 -17.4618
rtoes 6.41648
lfemur -3.1675 -2.96717 -20.9912
ltibia 13.9873
lfoot -15.5327 7.66737
ltoes -1.92103
151
root 31.0046 17.4764 5.55388 176.285 -85.8234 -168.613
lowerback -0.310763 -2.94085 -1.15155
upperback -2.30105 -3.93466 1.73805
thorax -1.98732 -1.94186 2.4776
lowerneck -18.1892 -7.16055 -9.9012
upperneck 11.0564 -8.57921 8.73309
head 7.16667 -3.81733 3.43311
rclavicle 4.80438e-014 -1.78906e-015
rhumerus -19.9649 18.613 -86.2163
rradius 79.9319
rwrist 18.2717
rhand -21.5515 -21.8172
rfingers 7.12502
rthumb 4.84187 -51.7419
lclavicle 4.80438e-014 -1.78906e-015
lhumerus -13.9018 -24.2799 97.6882
lradius 61.2972
lwrist -5.77483
lhand -15.8205 26.7858
lfingers 7.12502
lthumb 10.3733 56.5099
rfemur -36.8477 -5.09083 16.4735
rtibia 31.2495
rfoot -3.6796 -17.3135
rtoes 6.24215
lfemur -2.73732 -2.97565 -21.0786
ltibia 14.0439
lfoot -15.8579 7.61606
ltoes -2.36662
152
root 30.8731 17.4604 5.5447 176.768 -85.9276 -169.073
lowerback -0.266856 -3.00275 -1.16041
upperback -2.29849 -4.01699 1.79013
thorax -2.00095 -1.98237 2.53911
lowerneck -18.2165 -7.12142 -9.83981
upperneck 10.9953 -8.52654 8.68569
head 7.14111 -3.79314 3.41437
rclavicle -1.82012e-014 8.94531e-015
rhumerus -19.506 18.867 -86.0164
rradius 80.7108
rwrist 18.349
rhand -21.7867 -21.8101
rfingers 7.12502
rthumb 4.61469 -51.7398
lclavicle -1.82012e-014 8.94531e-015
lhumerus -13.4226 -24.8973 97.7607
lradius 61.877
lwrist -5.52546
lhand -15.7569 26.728
lfingers 7.12502
lthumb 10.4347 56.449
rfemur -37.0078 -4.92031 16.2671
rtibia 30.0134
rfoot -3.49016 -17.1817
rtoes 6.06035
lfemur -2.32646 -2.98625 -21.1565
ltibia 14.1416
lfoot -16.1758 7.56051
ltoes -2.85068
153
root 30.741 17.4442 5.53466 177.221 -86.0325 -169.505
lowerback -0.210197 -3.06288 -1.16329
upperback -2.29387 -4.09689 1.84108
thorax -2.02006 -2.0217 2.59691
lowerneck -18.2454 -7.08298 -9.77851
upperneck 10.9333 -8.47447 8.63691
head 7.1156 -3.76933 3.39508
rclavicle -1.6524e-015 -7.95139e-015
rhumerus -19.0365 19.1187 -85.8142
rradius 81.4471
rwrist 18.4214
rhand -22.0225 -21.8051
rfingers 7.12502
rthumb 4.38704 -51.7397
lclavicle -1.6524e-015 -7.95139e-015
lhumerus -12.935 -25.4818 97.8185
lradius 62.434
lwrist -5.27032
lhand -15.6876 26.6804
lfingers 7.12502
lthumb 10.5015 56.3981
rfemur -37.1571 -4.73344 16.0601
rtibia 28.8789
rfoot -3.29662 -17.0634
rtoes 5.87298
lfemur -1.93697 -2.99706 -21.2247
ltibia 14.2841
lfoot -16.4847 7.49929
ltoes -3.37671
154
root 30.6083 17.4281 5.52372 177.626 -86.1381 -169.89
lowerback -0.145542 -3.12227 -1.15902
upperback -2.28414 -4.17571 1.89085
thorax -2.03888 -2.06062 2.64992
lowerneck -18.2733 -7.0439 -9.71787
upperneck 10.8663 -8.42132 8.58872
head 7.08832 -3.74505 3.37626
rclavicle -3.557e-014 9.14409e-015
rhumerus -18.5543 19.3703 -85.6112
rradius 82.1416
rwrist 18.4868
rhand -22.2627 -21.8055
rfingers 7.12502
rthumb 4.15507 -51.7447
lclavicle -3.557e-014 9.14409e-015
lhumerus -12.4348 -26.0294 97.858
lradius 62.9689
lwrist -5.00435
lhand -15.6189 26.6407
lfingers 7.12502
lthumb 10.5678 56.355
rfemur -37.2967 -4.53202 15.8557
rtibia 27.8517
rfoot -3.10325 -16.958
rtoes 5.69556
lfemur -1.57126 -3.01017 -21.2815
ltibia 14.4763
lfoot -16.7831 7.43312
ltoes -3.9495
155
root 30.4749 17.4121 5.51187 178.008 -86.2435 -170.256
lowerback -0.0695767 -3.18036 -1.14942
upperback -2.27013 -4.25269 1.93867
thorax -2.06013 -2.09869 2.69861
lowerneck -18.3009 -7.0043 -9.65793
upperneck 10.7949 -8.36726 8.54114
head 7.0596 -3.72036 3.35788
rclavicle 2.42269e-014 5.96354e-015
rhumerus -18.0604 19.6224 -85.4079
rradius 82.7939
rwrist 18.5424
rhand -22.5073 -21.8136
rfingers 7.12502
rthumb 3.91888 -51.7573
lclavicle 2.42269e-014 5.96354e-015
lhumerus -11.9245 -26.5396 97.8808
lradius 63.4824
lwrist -4.73157
lhand -15.5435 26.6129
lfingers 7.12502
lthumb 10.6405 56.3235
rfemur -37.4286 -4.31925 15.6539
rtibia 26.9366
rfoot -2.91226 -16.8623
rtoes 5.52295
lfemur -1.23116 -3.02472 -21.3295
ltibia 14.7211
lfoot -17.068 7.36189
ltoes -4.57773
156
root 30.341 17.3962 5.49906 178.355 -86.348 -170.592
lowerback 0.0204349 -3.23643 -1.13573
upperback -2.25164 -4.32687 1.98537
thorax -2.08509 -2.13537 2.74474
lowerneck -18.33 -6.96481 -9.59932
upperneck 10.7191 -8.31276 8.4938
head 7.02983 -3.6955 3.33983
rclavicle 1.31571e-014 1.98785e-015
rhumerus -17.5548 19.8745 -85.2031
rradius 83.4047
rwrist 18.5882
rhand -22.7582 -21.8332
rfingers 7.12502
rthumb 3.6766 -51.7813
lclavicle 1.31571e-014 1.98785e-015
lhumerus -11.404 -27.0121 97.8889
lradius 63.9746
lwrist -4.45276
lhand -15.463 26.5993
lfingers 7.12502
lthumb 10.7182 56.3059
rfemur -37.5538 -4.09595 15.4576
rtibia 26.1373
rfoot -2.72807 -16.7755
rtoes 5.3499
lfemur -0.918693 -3.03848 -21.3665
ltibia 15.0221
lfoot -17.3364 7.28236
ltoes -5.26038
157
root 30.2066 17.3806 5.48531 178.655 -86.4521 -170.883
lowerback 0.12488 -3.29075 -1.11593
upperback -2.22886 -4.39859 2.03024
thorax -2.11435 -2.17088 2.78651
lowerneck -18.3587 -6.92523 -9.54285
upperneck 10.6383 -8.25774 8.44828
head 6.99854 -3.6704 3.3228
rclavicle 6.70401e-014 -1.15295e-014
rhumerus -17.0391 20.1266 -84.9985
rradius 83.9752
rwrist 18.6241
rhand -23.0095 -21.8608
rfingers 7.12502
rthumb 3.43394 -51.8129
lclavicle 6.70401e-014 -1.15295e-014
lhumerus -10.8749 -27.4469 97.8822
lradius 64.4461
lwrist -4.16725
lhand -15.3797 26.5955
lfingers 7.12502
lthumb 10.7986 56.2979
rfemur -37.6741 -3.86697 15.2702
rtibia 25.4563
rfoot -2.55199 -16.6917
rtoes 5.1801
lfemur -0.63725 -3.0496 -21.3913
ltibia 15.384
lfoot -17.5863 7.1921
ltoes -6.00303
158
root 30.0717 17.3654 5.47057 178.911 -86.5534 -171.132
lowerback 0.240099 -3.34246 -1.09043
upperback -2.19772 -4.46663 2.07216
thorax -2.14185 -2.20469 2.8226
lowerneck -18.3914 -6.88615 -9.48735
upperneck 10.5503 -8.20304 8.40599
head 6.96588 -3.64519 3.30687
rclavicle 7.67806e-015 -5.96354e-015
rhumerus -16.5067 20.3766 -84.7937
rradius 84.5052
rwrist 18.6492
rhand -23.2622 -21.8976
rfingers 7.12502
rthumb 3.18988 -51.8535
lclavicle 7.67806e-015 -5.96354e-015
lhumerus -10.3302 -27.8437 97.8569
lradius 64.897
lwrist -3.87727
lhand -15.3061 26.5916
lfingers 7.12502
lthumb 10.8695 56.2903
rfemur -37.7913 -3.6353 15.095
rtibia 24.8942
rfoot -2.38316 -16.6063
rtoes 5.02323
lfemur -0.389607 -3.05691 -21.4038
ltibia 15.8105
lfoot -17.8136 7.09067
ltoes -6.80321
